<svg width="300" height="300" viewBox="0 0 300 300" fill="none" xmlns="http://www.w3.org/2000/svg">
<g opacity="0.2">
<path d="M295.604 145.605H224.848V135.607H243.938C246.365 135.607 248.333 133.639 248.333 131.213C248.333 128.786 246.365 126.818 243.938 126.818H224.848V116.819H238.102C243.039 116.819 247.682 114.897 251.173 111.405L280.075 82.5032C281.958 83.4412 284.046 83.9405 286.211 83.9405C289.894 83.9405 293.357 82.5061 295.961 79.9022C298.566 77.2977 300 73.8354 300 70.1522C300 66.469 298.566 63.0068 295.961 60.4023C293.357 57.7978 289.894 56.3634 286.211 56.3634C282.528 56.3634 279.066 57.7978 276.461 60.4017C273.857 63.0062 272.422 66.4685 272.422 70.1516C272.422 72.3173 272.922 74.405 273.86 76.2882L244.958 105.19C243.127 107.021 240.692 108.03 238.101 108.03H224.847V98.334C224.847 85.5512 214.448 75.152 201.665 75.152H191.969V36.2489C197.423 34.4096 201.363 29.2493 201.363 23.1825C201.363 15.5794 195.177 9.39427 187.575 9.39427C179.972 9.39427 173.787 15.58 173.787 23.1825C173.787 29.2493 177.726 34.409 183.18 36.2489V75.1514H173.182V56.0611C173.182 53.6341 171.214 51.6666 168.787 51.6666C166.36 51.6666 164.393 53.6341 164.393 56.0611V75.1514H154.394V4.39506C154.394 1.96812 152.426 0.000549316 149.999 0.000549316C147.572 0.000549316 145.605 1.96812 145.605 4.39506V75.1514H135.606V56.0611C135.606 53.6341 133.639 51.6666 131.212 51.6666C128.785 51.6666 126.817 53.6341 126.817 56.0611V75.1514H116.819V61.8982C116.819 56.9605 114.896 52.3181 111.404 48.8271L82.4926 19.9153C85.0467 14.7585 84.1907 8.32845 79.9022 4.0394C74.5257 -1.33656 65.7782 -1.33597 60.4023 4.0394C55.0263 9.41536 55.0263 18.1628 60.4023 23.5393C63.0906 26.227 66.6214 27.5711 70.1523 27.5711C72.2546 27.5711 74.3534 27.0831 76.2782 26.1297L105.19 55.0421C107.022 56.8732 108.03 59.3083 108.03 61.8982V75.1514H98.334C96.374 75.1514 94.4246 75.3975 92.5403 75.8821C90.1901 76.4868 88.775 78.8827 89.3797 81.2334C89.9844 83.5842 92.3809 84.9993 94.7311 84.394C95.9 84.0934 97.1117 83.9405 98.3334 83.9405H201.665C209.602 83.9405 216.058 90.3975 216.058 98.3334V201.666C216.058 202.887 215.906 204.098 215.606 205.265C215.002 207.616 216.417 210.011 218.768 210.616C219.134 210.71 219.502 210.755 219.865 210.755C221.823 210.755 223.608 209.437 224.118 207.453C224.602 205.571 224.847 203.624 224.847 201.665V191.969H263.75C265.589 197.423 270.75 201.363 276.816 201.363C284.419 201.363 290.605 195.178 290.605 187.575C290.605 179.972 284.419 173.787 276.816 173.787C270.75 173.787 265.59 177.726 263.75 183.18H224.847V173.181H243.938C246.365 173.181 248.332 171.214 248.332 168.787C248.332 166.36 246.365 164.392 243.938 164.392H224.847V154.395H295.604C298.031 154.395 299.999 152.427 299.999 150C299.999 147.573 298.031 145.605 295.604 145.605ZM282.676 66.6173C283.62 65.6728 284.875 65.153 286.211 65.153C287.546 65.153 288.801 65.6728 289.746 66.6173C290.69 67.5618 291.21 68.8169 291.21 70.1522C291.21 71.4876 290.69 72.7427 289.746 73.6872C288.801 74.6317 287.546 75.1514 286.211 75.1514C284.875 75.1514 283.62 74.6317 282.676 73.6872C281.731 72.7427 281.211 71.4876 281.211 70.1522C281.211 68.8169 281.731 67.5612 282.676 66.6173ZM73.6866 17.3249C71.7378 19.2731 68.5661 19.2737 66.6161 17.3243C64.6667 15.3749 64.6667 12.2032 66.6161 10.2544C67.5911 9.27942 68.8708 8.79251 70.1517 8.79251C71.4319 8.79251 72.7122 9.28001 73.6866 10.2544C75.636 12.2038 75.636 15.3755 73.6866 17.3249ZM187.575 28.1817C184.819 28.1817 182.576 25.9387 182.576 23.1825C182.576 20.4263 184.818 18.1833 187.575 18.1833C190.332 18.1833 192.574 20.4263 192.574 23.1825C192.574 25.9387 190.331 28.1817 187.575 28.1817ZM276.817 182.576C279.574 182.576 281.816 184.819 281.816 187.575C281.816 190.332 279.573 192.575 276.817 192.575C274.061 192.575 271.818 190.332 271.818 187.575C271.817 184.819 274.06 182.576 276.817 182.576Z" fill="#d3d0d063"/>
<path d="M239.597 276.461C235.309 272.172 228.878 271.316 223.721 273.87L194.809 244.958C192.978 243.127 191.969 240.692 191.969 238.102V224.849H201.665C203.625 224.849 205.574 224.603 207.458 224.118C209.808 223.513 211.223 221.117 210.618 218.767C210.014 216.416 207.619 215.001 205.267 215.606C204.099 215.907 202.887 216.059 201.665 216.059H98.3334C90.3969 216.059 83.9405 209.602 83.9405 201.666V98.3341C83.9405 97.1124 84.0928 95.9007 84.3934 94.7329C84.9987 92.3827 83.5836 89.9869 81.2335 89.3816C78.8827 88.7763 76.4868 90.1914 75.8821 92.5415C75.3969 94.4247 75.1514 96.3736 75.1514 98.3341V108.03H36.2483C34.409 102.576 29.2487 98.6364 23.1819 98.6364C15.5788 98.6364 9.39371 104.822 9.39371 112.425C9.39371 120.028 15.5794 126.213 23.1819 126.213C29.2487 126.213 34.4085 122.273 36.2483 116.819H75.1509V126.818H56.0605C53.6336 126.818 51.666 128.786 51.666 131.213C51.666 133.64 53.6336 135.607 56.0605 135.607H75.1509V145.606H4.39451C1.96757 145.606 0 147.573 0 150C0 152.427 1.96757 154.395 4.39451 154.395H75.1509V164.393H56.0605C53.6336 164.393 51.666 166.361 51.666 168.788C51.666 171.214 53.6336 173.182 56.0605 173.182H75.1509V183.181H61.897C56.9593 183.181 52.317 185.104 48.826 188.595L19.9241 217.497C18.0409 216.559 15.9533 216.06 13.7876 216.06C10.1045 216.06 6.64216 217.494 4.03768 220.098C1.43437 222.702 0 226.165 0 229.848C0 233.53 1.43437 236.993 4.03885 239.598C6.64275 242.202 10.1056 243.636 13.7888 243.636C17.472 243.636 20.9343 242.202 23.5388 239.598C26.1433 236.993 27.5776 233.531 27.5776 229.848C27.5776 227.682 27.0784 225.595 26.1403 223.711L55.0422 194.81C56.8732 192.978 59.3083 191.969 61.8988 191.969H75.1526V201.666C75.1526 214.448 85.5524 224.847 98.3345 224.847H108.031V263.75C102.577 265.589 98.6369 270.75 98.6369 276.816C98.6369 284.42 104.823 290.605 112.425 290.605C120.028 290.605 126.213 284.419 126.213 276.816C126.213 270.75 122.274 265.59 116.82 263.75V224.847H126.818V243.938C126.818 246.365 128.786 248.332 131.213 248.332C133.639 248.332 135.607 246.365 135.607 243.938V224.847H145.605V295.605C145.605 298.032 147.572 300 149.999 300C152.426 300 154.394 298.032 154.394 295.605V224.849H164.392V243.939C164.392 246.366 166.36 248.334 168.787 248.334C171.214 248.334 173.181 246.366 173.181 243.939V224.849H183.18V238.102C183.18 243.04 185.103 247.682 188.594 251.173L217.506 280.085C214.952 285.242 215.808 291.672 220.097 295.961C222.785 298.649 226.316 299.993 229.847 299.993C233.378 299.993 236.909 298.649 239.597 295.961C244.973 290.585 244.973 281.837 239.597 276.461ZM23.1819 117.424C20.4251 117.424 18.1827 115.181 18.1827 112.425C18.1827 109.668 20.4257 107.425 23.1819 107.425C25.9382 107.425 28.1811 109.668 28.1811 112.425C28.1817 115.181 25.9388 117.424 23.1819 117.424ZM17.3232 233.383C16.3786 234.327 15.1236 234.847 13.7882 234.847C12.4529 234.847 11.1978 234.327 10.2533 233.383C9.30875 232.438 8.78903 231.183 8.78903 229.848C8.78903 228.513 9.30875 227.257 10.2533 226.313C11.1978 225.368 12.4529 224.849 13.7882 224.849C15.1236 224.849 16.3786 225.368 17.3232 226.313C18.2677 227.257 18.7874 228.513 18.7874 229.848C18.7874 231.183 18.2677 232.439 17.3232 233.383ZM117.423 276.818C117.423 279.574 115.181 281.817 112.424 281.817C109.667 281.817 107.425 279.574 107.425 276.818C107.425 274.061 109.668 271.818 112.424 271.818C115.18 271.818 117.423 274.061 117.423 276.818ZM233.383 289.746C231.433 291.696 228.262 291.695 226.312 289.746C224.363 287.797 224.363 284.625 226.312 282.676C227.287 281.702 228.567 281.214 229.848 281.214C231.128 281.214 232.408 281.702 233.383 282.676C235.331 284.625 235.331 287.797 233.383 289.746Z" fill="#d3d0d063"/>
<path d="M196.666 138.258C196.666 128.86 189.792 120.899 180.381 118.312C180.66 117.163 180.814 115.981 180.814 114.774C180.814 105.876 172.916 98.6363 163.21 98.6363C157.952 98.6363 153.229 100.763 150 104.124C146.771 100.763 142.048 98.6363 136.79 98.6363C127.083 98.6363 119.186 105.876 119.186 114.774C119.186 115.981 119.34 117.163 119.619 118.312C110.208 120.898 103.334 128.859 103.334 138.258C103.334 142.852 104.959 147.185 107.962 150.764C105.026 154.565 103.334 159.179 103.334 164.092C103.333 171.564 107.325 178.54 113.901 182.868C113.901 182.872 113.901 182.875 113.901 182.879C113.901 193.071 122.984 201.364 134.148 201.364C140.564 201.364 146.288 198.623 150 194.358C153.712 198.623 159.436 201.364 165.852 201.364C176.596 201.364 185.408 193.683 186.056 184.019C192.582 180.233 196.666 173.601 196.666 166.44C196.666 161.172 194.42 156.147 190.555 152.349C194.42 148.551 196.666 143.525 196.666 138.258ZM181.113 156.235C185.348 158.47 187.875 162.285 187.875 166.44C187.875 169.537 186.436 172.492 184.004 174.702C181.694 170.424 177.61 167.018 172.451 165.398C170.137 164.671 167.669 165.958 166.942 168.273C166.214 170.589 167.502 173.055 169.817 173.782C174.297 175.19 177.307 178.846 177.307 182.879C177.307 188.226 172.168 192.576 165.85 192.576C159.532 192.576 154.392 188.226 154.392 182.879V154.697C154.392 149.351 159.532 145.001 165.85 145.001C168.276 145.001 170.244 143.034 170.244 140.607C170.244 138.18 168.276 136.212 165.85 136.212C161.599 136.212 157.652 137.417 154.392 139.468V133.855C154.392 131.428 152.425 129.461 149.998 129.461C147.571 129.461 145.603 131.428 145.603 133.855V158.252C144.124 157.324 142.502 156.555 140.748 156.004C138.431 155.276 135.966 156.564 135.239 158.879C134.511 161.194 135.798 163.661 138.113 164.389C142.593 165.797 145.603 169.452 145.603 173.485V182.879C145.603 188.225 140.463 192.575 134.146 192.575C127.828 192.575 122.688 188.225 122.688 182.879C122.688 180.587 123.659 178.359 125.423 176.606C127.144 174.895 127.153 172.113 125.442 170.391C123.731 168.67 120.949 168.661 119.227 170.372C118.174 171.419 117.268 172.563 116.514 173.779C113.739 171.154 112.119 167.7 112.119 164.091C112.119 157.58 117.229 151.86 124.546 150.181C126.911 149.638 128.389 147.281 127.846 144.915C127.304 142.549 124.945 141.072 122.581 141.615C119.635 142.29 116.923 143.418 114.519 144.899C112.96 142.941 112.12 140.647 112.12 138.257C112.122 131.647 118.388 126.266 126.112 126.215C126.151 126.216 126.191 126.222 126.229 126.222C127.232 126.222 128.241 125.88 129.066 125.181C130.751 123.755 131.089 121.335 129.958 119.514C129.925 119.46 129.894 119.405 129.859 119.353C129.841 119.327 129.819 119.302 129.8 119.275C129.732 119.18 129.663 119.086 129.587 118.996C129.585 118.993 129.583 118.99 129.581 118.988C128.848 118.121 127.973 116.687 127.973 114.773C127.973 110.721 131.928 107.425 136.788 107.425C141.649 107.425 145.604 110.721 145.604 114.773C145.604 117.2 147.571 119.167 149.998 119.167C152.425 119.167 154.393 117.2 154.393 114.773C154.393 110.721 158.348 107.425 163.208 107.425C168.068 107.425 172.024 110.721 172.024 114.773C172.024 115.856 171.74 116.779 171.364 117.539C168.865 117.775 166.447 118.379 164.152 119.347C161.916 120.29 160.867 122.867 161.81 125.104C162.753 127.34 165.33 128.389 167.567 127.446C169.467 126.645 171.51 126.233 173.642 126.216C173.684 126.217 173.726 126.222 173.768 126.222C173.807 126.222 173.846 126.216 173.885 126.215C181.609 126.265 187.875 131.647 187.875 138.257C187.875 142.412 185.348 146.227 181.113 148.462C179.672 149.222 178.769 150.718 178.769 152.348C178.769 153.978 179.672 155.474 181.113 156.235Z" fill="#d3d0d063"/>
</g>
</svg>
