<svg width="280" height="282" viewBox="0 0 280 282" fill="#d3d0d063" xmlns="http://www.w3.org/2000/svg">
<path d="M153.319 4.14634V-2.05032H161.976V-17.9999H118.94V-2.05032H126.668V4.14634C93.8326 7.26138 64.3399 21.7737 42.1536 43.6927L38.6509 40.1966L43.8047 35.0561L37.8755 29.1335L19.2654 47.7436L25.1947 53.6662L30.6159 48.2316L34.4529 52.0552C13.4899 76.4207 0.742279 108.066 0.742279 142.732C0.742279 219.646 63.0699 282 139.997 282C216.91 282 279.258 219.646 279.258 142.732C279.258 70.3243 223.976 10.8577 153.319 4.14634ZM145.913 258.891V238.136C145.913 234.893 143.265 232.22 139.997 232.22C136.735 232.22 134.094 234.867 134.094 238.136V258.891C74.5073 255.903 26.8458 208.235 23.8511 148.648H43.671C46.9331 148.648 49.5803 146.001 49.5803 142.732C49.5803 139.484 46.9331 136.83 43.671 136.83H23.8511C26.8458 77.2228 74.534 29.5547 134.134 26.5666C134.134 26.6602 134.094 26.7404 134.094 26.834V48.4856C134.094 51.7544 136.735 54.4015 139.997 54.4015C143.245 54.4015 145.913 51.7544 145.913 48.4856V26.8474C145.913 26.7538 145.859 26.6736 145.859 26.58C205.446 29.5547 253.154 77.2362 256.156 136.836H236.155C232.907 136.836 230.226 139.484 230.226 142.739C230.226 146.014 232.873 148.662 236.155 148.662H256.156C253.154 208.235 205.486 255.903 145.913 258.891Z" fill="#d3d0d063"/>
<path d="M160.057 149.544C161.08 146.402 161.515 143.013 161.033 139.517C159.322 127.264 148.005 118.714 135.725 120.419C123.472 122.117 114.903 133.454 116.621 145.72C118.325 157.966 129.662 166.516 141.909 164.818C146.454 164.176 150.465 162.218 153.653 159.397C168.814 169.284 197.531 187.987 197.531 187.987L212.231 190.494L204.016 178.107L160.057 149.544Z" ill="#d3d0d063"/>
</svg>
